<svg xmlns:xlink="http://www.w3.org/1999/xlink" xmlns="http://www.w3.org/2000/svg" version="1.1" width="257.000000pt"
     height="252.000000pt">
    <svg version="1.0" xmlns="http://www.w3.org/2000/svg" width="257.000000pt" height="252.000000pt"
         viewBox="0 0 257.000000 252.000000" preserveAspectRatio="xMidYMid meet">

        <g transform="translate(0.000000,252.000000) scale(0.100000,-0.100000)" fill="#000000" stroke="none"
           data-darkreader-inline-fill="" data-darkreader-inline-stroke=""
           style="--darkreader-inline-fill: var(--darkreader-background-000000, #181a1b); --darkreader-inline-stroke: none;">
            <path d="M0 1260 l0 -1260 1285 0 1285 0 0 1260 0 1260 -1285 0 -1285 0 0
-1260z m888 1010 c51 -22 99 -37 107 -34 13 5 15 -6 15 -68 l0 -74 -48 -15
c-41 -12 -54 -12 -102 1 l-55 15 3 61 c3 55 5 61 30 70 l27 11 -37 16 c-26 11
-38 22 -38 36 0 12 1 21 3 21 2 0 45 -18 95 -40z m1026 10 c5 0 3 -7 -4 -15
-15 -18 -40 -19 -92 -3 -34 10 -41 9 -58 -8 -10 -10 -22 -32 -26 -48 -8 -33
-6 -33 82 2 49 20 53 20 85 4 63 -32 49 -86 -33 -126 -46 -22 -58 -24 -90 -16
-60 17 -98 55 -98 99 0 48 20 75 82 110 49 28 52 29 97 15 25 -7 50 -14 55
-14z m300 0 c5 0 3 -7 -4 -15 -15 -18 -40 -19 -92 -3 -34 10 -41 9 -58 -8 -10
-10 -22 -31 -25 -46 -9 -35 1 -35 75 -4 55 24 83 23 117 -6 24 -20 15 -65 -16
-88 -79 -55 -138 -57 -201 -4 -24 21 -30 34 -30 66 0 32 6 46 32 70 17 16 48
38 67 48 32 16 40 16 81 4 25 -8 49 -14 54 -14z m-1743 -46 l39 -7 0 -66 0
-67 -47 -15 c-43 -14 -53 -14 -98 0 l-50 16 3 62 3 62 42 15 c23 8 48 13 55
10 8 -2 31 -7 53 -10z m174 2 c15 -11 18 -24 16 -74 -2 -55 0 -61 20 -67 l22
-7 -23 -13 c-19 -10 -29 -10 -53 0 -30 12 -30 14 -28 79 2 58 0 66 -16 66 -14
1 -13 4 7 15 31 18 32 18 55 1z m96 4 c10 -6 19 -15 19 -20 0 -17 -40 -21 -61
-7 -20 14 -20 16 -2 26 23 13 21 13 44 1z m489 -19 l35 -29 -63 -28 c-42 -18
-62 -32 -62 -44 0 -22 61 -36 90 -20 11 6 20 8 20 5 0 -3 -19 -14 -43 -24 -37
-16 -50 -17 -88 -7 l-44 11 3 67 3 67 47 15 c64 19 62 19 102 -13z m145 15
c15 -11 18 -24 16 -74 -2 -55 0 -61 20 -67 l22 -7 -23 -13 c-19 -10 -29 -10
-53 0 -30 12 -30 14 -28 79 2 58 0 66 -16 66 -14 1 -13 4 7 15 31 18 32 18 55
1z m96 4 c10 -6 19 -15 19 -20 0 -16 -38 -21 -59 -9 -18 12 -18 14 -3 26 21
15 19 15 43 3z m14 -285 c237 -60 434 -204 562 -413 188 -306 163 -721 -59
-1004 -199 -252 -516 -385 -829 -348 -466 56 -809 436 -809 896 0 364 227 696
570 833 110 43 199 59 341 60 104 1 144 -4 224 -24z"></path>
            <path d="M876 2223 c-3 -4 -6 -30 -6 -59 0 -46 2 -52 24 -58 13 -3 32 -9 41
-12 14 -6 16 1 13 52 -3 54 -5 58 -34 70 -18 7 -34 10 -38 7z"></path>
            <path d="M1762 2178 c-29 -14 -24 -27 18 -56 24 -16 46 -22 70 -20 30 3 35 7
38 30 6 48 -67 74 -126 46z"></path>
            <path d="M2067 2178 c-34 -12 -31 -26 13 -55 70 -48 151 -13 96 42 -27 27 -61
31 -109 13z"></path>
            <path d="M380 2166 c0 -59 1 -60 43 -70 27 -6 27 -6 27 49 0 50 -2 56 -26 65
-41 16 -44 13 -44 -44z"></path>
            <path d="M1140 2191 l0 -41 31 12 c38 16 39 26 0 50 l-31 20 0 -41z"></path>
            <path d="M1085 1924 c-147 -32 -294 -110 -411 -217 -129 -119 -224 -289 -260
-464 -24 -116 -15 -301 20 -408 93 -285 317 -499 603 -577 110 -30 324 -30
438 1 178 47 358 163 468 301 64 80 137 222 162 315 26 95 31 275 11 375 -63
309 -290 554 -606 655 -108 35 -312 44 -425 19z m265 -214 l5 -105 9 73 c6 46
13 72 21 72 7 0 48 -18 91 -39 125 -63 189 -136 220 -254 12 -45 11 -50 -12
-84 -13 -19 -26 -57 -30 -83 l-6 -48 -58 -16 c-187 -53 -647 -43 -717 16 -7 6
-13 30 -13 53 0 29 -8 54 -25 79 -23 34 -24 41 -14 79 17 66 58 134 111 183
48 45 194 122 206 109 4 -4 12 -37 18 -73 l11 -67 2 101 c0 55 4 104 8 108 4
4 43 5 88 4 l80 -3 5 -105z m431 -502 c27 -54 21 -107 -21 -166 -31 -43 -31
-46 -24 -125 5 -60 13 -89 30 -115 61 -90 56 -164 -15 -232 -26 -25 -56 -61
-66 -80 -47 -95 -126 -144 -232 -144 -82 0 -126 22 -131 66 -3 23 -6 25 -61
24 -56 -1 -59 -2 -70 -32 -6 -17 -23 -36 -37 -42 -39 -18 -153 -14 -199 7 -45
20 -108 85 -131 134 -9 18 -29 42 -45 53 -42 27 -69 75 -69 120 0 39 30 116
55 144 9 10 15 45 16 103 1 77 -1 91 -19 110 -45 48 -55 130 -22 185 23 38 27
38 55 12 50 -47 329 -87 535 -75 234 13 355 38 392 80 25 29 32 26 59 -27z"></path>
            <path d="M872 1087 c2 -42 6 -79 10 -82 4 -4 55 9 115 29 113 38 164 44 180
24 6 -7 18 -57 28 -112 20 -115 29 -98 -102 -180 -51 -32 -93 -59 -93 -61 0
-2 39 11 88 28 116 42 192 42 320 0 50 -17 92 -30 92 -28 0 2 -46 31 -102 66
-57 34 -105 64 -107 66 -7 5 20 184 32 210 17 37 65 34 197 -13 63 -23 98 -30
104 -24 6 6 12 42 14 82 4 70 4 71 -19 65 -159 -40 -605 -40 -743 0 -17 5 -18
-1 -14 -70z"></path>
            <path d="M830 1005 c0 -6 32 -50 70 -99 72 -92 83 -123 60 -167 -16 -28 -32
-24 -94 27 -31 26 -59 45 -61 42 -8 -8 113 -103 131 -103 24 0 55 46 56 83 1
19 -9 47 -25 69 -37 53 -136 160 -137 148z"></path>
            <path d="M1612 935 c-35 -41 -70 -91 -79 -113 -14 -36 -14 -43 2 -75 26 -56
47 -56 110 -2 69 59 72 70 4 16 -29 -23 -57 -41 -63 -41 -22 0 -36 24 -36 62
0 32 11 52 70 127 39 48 70 91 70 95 0 16 -20 -1 -78 -69z"></path>
            <path d="M1699 764 l-34 -35 25 -19 c33 -26 35 -25 61 11 18 25 20 35 10 55
-14 32 -21 31 -62 -12z"></path>
            <path d="M751 772 c-14 -26 33 -86 57 -72 48 27 48 27 17 60 -33 34 -60 39
-74 12z"></path>
            <path d="M1192 528 c-15 -15 -15 -41 0 -56 20 -20 112 -15 131 6 21 23 21 27
1 46 -19 19 -114 22 -132 4z"></path>
            <path d="M1035 495 c-5 -2 -22 -6 -37 -9 -25 -6 -28 -11 -28 -45 0 -47 16 -62
75 -68 39 -5 47 -2 75 25 34 34 39 67 13 80 -21 11 -84 22 -98 17z"></path>
            <path d="M1435 494 c-11 -3 -30 -7 -42 -10 -33 -6 -31 -57 3 -91 22 -22 32
-25 70 -20 25 2 54 13 64 22 22 20 26 67 8 83 -16 13 -76 22 -103 16z"></path>
        </g>
    </svg>
    <style>@media (prefers-color-scheme: light) { :root { filter: none; } }
        @media (prefers-color-scheme: dark) { :root { filter: invert(100%); } }
    </style>
</svg>